<svg xmlns="http://www.w3.org/2000/svg" xmlns:xlink="http://www.w3.org/1999/xlink" xml:space="preserve" id="Capa_1" x="0" y="0" enable-background="new 0 0 500 500" version="1.1" viewBox="0 0 500 500">
  <defs>
    <path id="reuse-0" fill="#fff" stroke="#aa7d50" stroke-miterlimit="10" stroke-width="2.46" d="M40.1 129.2v242.4L250 492.7l209.9-121.1V129.2L250 8z"/>
  </defs>
  <style>
    .st10,.st5,.st6{stroke:#000;stroke-width:.2692;stroke-miterlimit:10}.st5,.st6{fill:#6b00fa}.st6{fill:#4300bf}.st10{fill:#100342}.st11{fill:#4300bf}.st12{fill:#6b00fa}.st13{fill:#100342}.st14{fill:#100641}.st15,.st16{fill:#e0e3bd;stroke:#000;stroke-width:.2692;stroke-miterlimit:10}.st16{stroke-width:1.0766}
  </style>
  <use xlink:href="#reuse-0" stroke-miterlimit="10" stroke-width="2.46"/>
  <defs>
    <filter id="Adobe_OpacityMaskFilter" width="422.2" height="487.5" x="38.9" y="6.6" filterUnits="userSpaceOnUse">
      <feFlood flood-color="#fff" flood-opacity="1" result="back"/>
      <feBlend in="SourceGraphic" in2="back"/>
    </filter>
  </defs>
  <mask id="SVGID_1_" width="422.2" height="487.5" x="38.9" y="6.6" maskUnits="userSpaceOnUse">
    <g filter="url(#Adobe_OpacityMaskFilter)">
      <path fill="none" stroke="#fff" stroke-miterlimit="10" stroke-width="2.46" d="M40.1 129.2v242.4L250 492.7l209.9-121.1V129.2L250 8z"/>
    </g>
  </mask>
  <use xlink:href="#reuse-0" stroke-miterlimit="10" stroke-width="2.46" mask="url(#SVGID_1_)"/>
  <path fill="#aa7d50" d="M127.3 130.5v51.7c7.9-4.2 15.5-8.4 22.9-12.8 7.4-4.4 14.7-8.6 22-12.8 8.1 4.4 16.2 8.8 24.3 13.3 8.1 4.5 16.2 9.1 24.3 13.8l15.7 9.4v73.6c-2.7 1.6-5.3 3.2-7.9 4.7-2.6 1.5-5.4 3.1-8.3 4.7-7.9 4.4-15.8 8.9-23.8 13.6-7.9 4.6-15.9 9.3-23.8 14.1-10.8-6.3-21.5-12.4-32.1-18.5-10.6-6.1-21.3-12.3-32.1-18.5v-75.7c0-12.1.1-24.2.2-36.3.1-12.1.1-23.7-.2-34.7v-.5c6.8 3.7 13 7.4 18.8 10.9zm45.5 47.6c-7.7 4.2-15.2 8.5-22.7 12.9s-15.1 8.8-22.7 13.2v51.7c7.7 4.4 15.2 8.8 22.7 13.1 7.5 4.3 14.9 8.6 22.2 13.1 7.7-4.2 15.2-8.5 22.7-12.9s15.1-8.8 22.7-13.2v-51.7c-7.7-4.4-15.1-8.8-22.5-13.1-7.3-4.4-14.8-8.7-22.4-13.1z"/>
  <path d="M111.6 317.8v9.6c1.5-.8 2.9-1.6 4.2-2.4 1.4-.8 2.7-1.6 4.1-2.4 1.5.8 3 1.6 4.5 2.5 1.5.8 3 1.7 4.5 2.6l2.9 1.7V343l-1.5.9-1.5.9c-1.5.8-2.9 1.7-4.4 2.5-1.5.9-2.9 1.7-4.4 2.6-2-1.2-4-2.3-6-3.4s-4-2.3-6-3.4v-27.2c1.4.5 2.5 1.2 3.6 1.9zm8.4 8.8-4.2 2.4c-1.4.8-2.8 1.6-4.2 2.5v9.6l4.2 2.4c1.4.8 2.8 1.6 4.1 2.4l4.2-2.4c1.4-.8 2.8-1.6 4.2-2.5v-9.6l-4.2-2.4c-1.3-.8-2.7-1.6-4.1-2.4zm26.8-4.1c2 1.2 4 2.3 6 3.4s4 2.3 6 3.4c-.1 4.5-.1 9 0 13.6-.1 0-.2 0-.2-.1-.1 0-.1-.1-.2-.1l-1.5-.9c-.5-.3-1-.6-1.6-.9v-9.6s0-.1-.1-.2-.2-.1-.3-.2c-.1-.1-.2-.1-.3-.1-.1 0-.2-.1-.2-.1-1.2-.7-2.5-1.4-3.7-2.1-1.2-.7-2.5-1.4-3.7-2.1-1.4.8-2.7 1.6-4.1 2.4-1.4.8-2.8 1.6-4.2 2.5v9.6c1.3.8 2.6 1.5 3.9 2.3s2.6 1.5 4 2.3l.2.2c.1.1.2.1.2.1s.1 0 .2-.1.2-.1.3-.2l2.1-1.2c.7-.4 1.4-.8 2-1.2.6.3 1.2.6 1.8 1 .6.4 1.2.7 1.7 1-1.4.8-2.7 1.6-4.1 2.4-1.4.8-2.8 1.6-4.1 2.4-2-1.2-4-2.3-5.9-3.4-2-1.1-3.9-2.3-5.9-3.4v-13.6c2-1.1 3.9-2.3 5.9-3.4 1.9-1.4 3.8-2.5 5.8-3.7zm11.9 20.5c-.1 1.4-.1 2.8 0 4.1-1.2-.6-2.4-1.3-3.6-2-1.2-.7-2.3-1.4-3.5-2.1.6-.3 1.2-.7 1.7-1 .6-.3 1.2-.6 1.7-1 .6.3 1.2.6 1.8 1 .7.4 1.3.7 1.9 1zm13.9-20.1c1.5.8 2.9 1.7 4.4 2.5 1.5.9 2.9 1.7 4.4 2.6.5.3 1 .6 1.5.8.5.3 1 .6 1.4.9-.6.3-1.2.6-1.7.9-.6.3-1.1.7-1.7 1l-4.2-2.4c-1.4-.8-2.8-1.6-4.1-2.4l-4.2 2.4-4.2 2.4c.2.2.4.3.6.4.2.1.4.2.6.4 1.5.9 2.9 1.7 4.4 2.6 1.5.8 2.9 1.7 4.4 2.6 1.3.7 2.5 1.4 3.8 2.1 1.3.7 2.5 1.4 3.9 2.2.4.2.8.5 1.2.7.4.2.8.5 1.2.7-2 1.1-3.9 2.2-5.9 3.4-1.9 1.1-3.9 2.3-5.9 3.4-2-1.1-4-2.2-5.9-3.4-1.9-1.1-3.9-2.3-5.9-3.4.5-.4 1.1-.7 1.7-1 .6-.3 1.2-.6 1.8-1 1.4.8 2.7 1.6 4.1 2.4l4.2 2.4c.8-.5 1.6-1 2.4-1.4.8-.4 1.6-.9 2.4-1.4-.3-.2-.7-.4-1-.6-.3-.2-.7-.4-1-.6-2.4-1.4-4.9-2.8-7.3-4.2-2.4-1.4-4.9-2.8-7.3-4.2v-3.9c2-1.2 4-2.3 6-3.5 1.9-1.1 3.9-2.3 5.9-3.4zm37.7 6.4c-2 1.2-3.9 2.3-5.9 3.4-2 1.1-3.9 2.3-5.9 3.4-.5-.3-1.1-.7-1.7-1-.6-.3-1.1-.7-1.7-1 1.4-.8 2.7-1.6 4.1-2.4 1.4-.8 2.8-1.6 4.1-2.4-.8-.5-1.6-1-2.4-1.4-.8-.4-1.6-.9-2.4-1.3l-4.2 2.4c-1.4.8-2.8 1.6-4.2 2.5v9.6l4.2 2.4c1.4.8 2.8 1.6 4.1 2.4l4.2-2.4c1.4-.8 2.7-1.6 4.2-2.4l3.5 2c-2 1.2-3.9 2.3-5.9 3.4-2 1.1-3.9 2.2-5.9 3.4-2-1.1-3.9-2.2-5.9-3.4-2-1.1-3.9-2.3-5.9-3.4v-13.6l5.1-3c1.7-1 3.5-2 5.2-3 .2-.2.5-.3.7-.5.2-.2.5-.3.7-.4.2 0 .3 0 .5.1l.6.3c1.8 1.1 3.6 2.1 5.5 3.2 1.8 1 3.6 2.1 5.3 3.1zm23.1-11.1c1.1-.7 2.2-1.3 3.5-2v.1c0 2-.1 4.2 0 6.4v20.7c-2 1.2-4 2.3-6 3.4s-4 2.3-6 3.4c-1.5-.9-2.9-1.8-4.4-2.6-1.5-.9-2.9-1.7-4.4-2.5l-1.5-.9-1.5-.9v-13.6l2.9-1.7c1.5-.9 3-1.7 4.5-2.6 1.5-.8 3-1.7 4.5-2.5 1.4.8 2.7 1.6 4.1 2.4l4.2 2.4v-9.5zM225 327l-4.2 2.4c-1.4.8-2.7 1.6-4.2 2.4v9.6c1.4.8 2.8 1.6 4.2 2.5l4.2 2.4c1.4-.8 2.7-1.6 4.1-2.4l4.2-2.4v-9.6c-1.4-.8-2.8-1.6-4.2-2.5-1.3-.8-2.7-1.6-4.1-2.4z"/>
  <g id="Color_Stone_1_">
    <path d="M272.8 333.9c.8-11.3.5-22.9 1.9-34.5.8-6.3 2.1-12.5 2.6-18.8.7-8.6-.2-17.2-.4-25.9-.1-2.5-.3-5.1.3-7.6.3-1.3.8-2.6 2.2-2.9 2.3-.5 1.7-1.8 1.2-3.2-.5-1.6-1-3.1-1.6-4.6-3.2-7.9-.5-15 3.4-21.7 3.3-5.7 7.7-10.8 12.3-15.6 5.1-5.4 11.5-8.1 18.9-8.2 1.4 0 2.8-.1 4.3-.2.7-.1 1.4-.1 2.2-.1.6-.1 1.3 0 2-.1.2-.1.4-.1.6-.2.4 0 .8.1 1.1.1.8.1 1.6.2 2.4.4 1.6.3 3.1.5 4.7.9 3.1.6 6.2 1.3 9.3 2.2 1.7.4 3.3.9 4.9 1.7 2.9 1.6 4.9 4.2 7.6 5.9 1.9 1.2 4 1.9 5.7 3.3 1.9 1.6 3.2 3.8 4.4 6 1.3 2.4 2.6 4.7 3.4 7.3.2.6.4 1.3.6 2 .6 2.7 1 5.5 1.3 8.3.3 2.7.7 5.5 1.6 8.2.2.6.5 1.3.8 1.9.1.3.3.5.3.8 0 .4-.1.8-.1 1.1-.1 8.1-.8 16.2-.9 24.3-.3 13.1-1.2 26.3-2.6 39.4-.3 2.3.1 4.6.6 6.8 1.6 6.6 2 13.1 1.1 19.9-.8 5.7-.8 11.6-1.2 17.4-.2 2.6-1.6 3.7-4.1 3.7-3 .1-5.7-1.2-8.6-1.2-4.1-.1-8.1.9-12.2 1.3-6.8.6-13.3-.6-20-1.4-1.2-.1-2.3-.6-3.5-.6-1.2 0-2.4.1-3.7 0-.6-.1-1.2-.1-1.8-.2-.4-.1-.6-.3-1-.3-1.6-.2-3.2-.2-4.8-.3-1.6-.1-3.2-.2-4.8-.2-3.2-.2-6.5-.3-9.7-.4l-9.7-.3c-.8 0-1.6-.1-2.4-.1-.8 0-1.6-.2-2.4-.1-.2.1-.4.2-.6.2-.8.2-1.7.1-2.4-.1-2.4-.6-3-3.2-3-5.3-.1-1.5.1-2.9.2-4.4-.4-1.3-.4-2.8-.4-4.6z" class="st5"/>
    <path d="M372.1 379.1c-.4 2.8-.1 6-.9 9-.3 1.2-.6 2.3-1.9 2.8-1.2.4-2.1-.1-2.7-1.2-.4-.8-1.2-.7-1.9-.8-6.1-.4-12.2-.8-18.2-1.1-20.8-1.1-41.5-2.2-62.3-3.2-5.8-.3-11.6-.4-17.4-.8-1.6-.1-4.7 0-5.1-2.1-.1-.6-.5-1.2-.6-1.8-.4-1.3-.4-2.8-.4-4.2l-.3-9.7c0-.5 0-1.1-.1-1.6 0-.4-.1-.6-.3-.9-.4-.8-.1-1.7.5-2.4.7-.9 1.7-1.2 2.7-.8 3.3 1.2 6.8 1 10.2 1.2 15.9.9 31.9 1.6 47.9 2.4 14.5.7 29 1.5 43.5 2.2 5 .3 6.9 2.3 6.9 7.4.2 1.8.3 3.5.4 5.6z" class="st6"/>
    <path d="M325.8 350.3c-4.9-.2-9.9-.4-14.7-1.1-3.1-.5-6.1-1.2-9.3-1.6-3.3-.4-6.8-.5-10.1-.5-5.1-.1-10.3-.2-15.3 1.1s-9.8 4-12.4 8.4c4.7 3.4 10.8 3.9 16.6 4.2l10.7.6c26.2 1.5 52.4 2.9 78.6 3-.8-2.5-1.6-5-2.5-7.5-.8-2.2-1.8-4.8-4.4-5.3-.9-.2-1.7 0-2.6.1-1.5 0-3.1-.1-4.6-.2-6.4-.2-12.9-.5-19.3-.7-3.5-.2-7.1-.4-10.7-.5z" class="st5"/>
    <path d="M385.4 345.8c.8-.4 1.7-.9 2.2-1.6.5-.8.5-1.7.6-2.5l.6-10.6c.3-4 .5-8 .4-12-.1-3.8-.4-7.5-.2-11.3.2-3.4.9-6.8 1.3-10.3 1.3-12.2-1.5-24.4-1-36.7.2-4.5.9-9 1.2-13.6.8-12.3-1.3-24.9-6.2-36.2-.4-1-.9-1.9-1.7-2.6-1.1-.9-2.5-1-3.7-1.7-1.7-1-2.3-3.1-3.2-4.8-2.3-4.4-6.6-7.4-11.3-9.1-4.7-1.7-9.6-2.2-14.5-2.6-3.4-.3-6.9-.6-10.3-1-1.7-.2-4.1.4-3.8 2 5 3.7 10.7 6.4 15.9 9.7s10.2 7.6 12.7 13.3c1.1 2.4 1.6 5.1 2.2 7.7 1.6 7.5 3.2 15.1 3.6 22.8.3 5.6-.1 11.3-.5 16.9-.5 7.4-.8 14.8-1.1 22.2-.3 7.4-.5 14.8-.6 22.2-.2 7.4-.2 14.8-.2 22.2 0 3.7.1 7.4.1 11.1 0 1.8.1 3.7.1 5.5.1 1.7-.1 3.6.1 5.4.4 2.6 3.3 2.3 5.2 1.5 3.3-1.5 6.6-3.2 9.9-4.8.4-.3 1.6-1.1 2.2-1.1z" class="st6"/>
    <path d="M371.3 363.6c.2.4.5.8.9.8.3 0 .5-.2.8-.3 2.5-1.7 4.5-3.9 7.2-5.2 1.8-.9 3.8-1.2 5.7-1.8 2.7-.9 5.1-2.5 7.5-4 .9-.5 1.8-1.3 1.7-2.4-.1-.4-.3-.7-.5-1-1.3-1.8-3-3.4-4.8-4.7-.4-.3-.8-.5-1.2-.5-.5-.1-1.1.2-1.6.4a641 641 0 0 0-11.7 5.9c-1.9 1-3.9 2-5.8 3-1.6.8-3 1.4-1.9 3.3 1.3 2.3 2.6 4.4 3.7 6.5zm1.7 23.2c.1.4.1.8.3 1.1.6.6 1.6.3 2.4-.2 6.5-3.7 13-7.3 19.5-11 .6-.4 1.3-.8 1.8-1.4.4-.7.5-1.6.5-2.4l.6-13.1c.1-1.2.1-2.6-.6-3.6-.8-1.1-2.2-1.4-3.5-1.2s-2.5.8-3.6 1.5c-5.2 2.9-10.4 5.8-15.7 8.6-1.7 1-3.8 1.6-3.7 3.9.2 2.6.6 5.3.9 7.9.2 1.7.4 3.3.5 5 .3 1.6.6 3.3.6 4.9z" class="st10"/>
    <path d="M343.5 217.9c1 .9.9 2.6-.2 3.4s-2.8.3-3.3-1 .4-2.8 1.7-3c.7 0 1.3.1 1.8.6zm8.8 7.6c-.1.3-.1.5-.1.8.1.5.4.9.8 1 1.1.6 2.8-.3 3-1.6.1-1.3-1.3-2.5-2.5-2.2-.1-.1-.3.1-.3.2-.6.6-.7 1.1-.9 1.8zm-5.4 7.5h-2.4c-.2 0-.4 0-.6.2-.1.1-.1.3-.2.4-.1.6-.2 1.2-.2 1.9-.1.8-.1 1.7.6 2.1.4.2.9.2 1.3.3.4.1.7.3 1.1.3.8 0 1.2-.8 1.4-1.6.2-.8.2-1.6-.2-2.4-.4-.8-1.1-1.3-1.9-1.2" class="st11"/>
    <path d="M383.3 256.5c-.5-.5-1.2-.5-1.9-.3-.6.2-1 .9-1 1.5 0 .5.4 1.1.8 1.5.6.6 1.7.1 2.1-.5.5-.6.5-1.6 0-2.2zm-3.8 9c-.1-.3-.3-.9-.5-1.1-.3-.3-1-.2-1.3 0l-.9.6-.3.3c-.2.3-.2.5-.3.9 0 .2-.2.9 0 1 .6.4 1.5.5 2.3.2.6-.3 1.1-1.1 1-1.9z" class="st12"/>
    <path d="M286.7 333.6c-1 0-2 .5-2.5 1.3-.5.9-.3 2.1.4 2.7.8.7 3.4.6 4.2-.1s-.3-1.9-.7-3c-.6-.4-1.3-.8-2-1.1m-4-17.7c-.3.9-.6 1.7-.8 2.6-.1.2-.1.4.1.5.2.3.5.3.8.4.8.1 1.7.1 2.2-.5.2-.2.3-.4.3-.6.3-.9.1-1.9-.6-2.4-.8-.5-1.9-.2-2.1.6m12.1 8.3c-.1-.3-.3-.7-.6-.8-.2-.1-.4 0-.6 0h-.6c-.2 0-.3 0-.4.1-.2.1-.4.4-.6.6-.1.1-.2.1-.2.2-.2.3-.2.6-.2 1 0 .1 0 1 .1 1 .5.1 2.4.3 3 .4.3.1-.6.2-.3-.1.1-.1.2-.2.3-.4.1-.7.3-1.4.1-2z" class="st11"/>
    <path d="M346.8 382.4c1 .8 2.7.5 3.4-.5.5-.8.4-1.8.3-2.8-.1-.3-.1-.5-.3-.7-.2-.2-.4-.2-.7-.2-.8-.1-1.4-.1-2.2-.1h-.3c-.3.1-.5.3-.8.5-.5.5-.8 1.2-.6 1.9.2.7.6 1.4 1.2 1.9zm-6.8-10.5c-.8.3-1.1 1.2-.9 2 .4.4 1 .7 1.6.8s1.2-.3 1.3-.9c.1-.5-.2-.9-.4-1.3-.3-.4-.6-.9-1.1-1-.5-.1-1.1.3-.9.8m38.1-37.8c-.9-.3-1.8.1-2.4.8-.6.7-.9 1.6-.9 2.5-.1.5 0 1 .3 1.3.4.5 1.1.5 1.7.4 1.2-.2 2.3-1.1 2.6-2.2.3-1.1-.4-2.6-1.6-2.7.7-.2-.3-.7.3-.1zm3.8-13.6c-1.1.2-2.2 1-2.3 2.2-.1 1.1 1.2 2.2 2.2 1.7 1-1 .9-2.9-.2-3.8" class="st12"/>
    <path d="M346.2 211.3c-.6.2-.9 1-.6 1.6.3.6 1 .9 1.7.9.3 0 .7-.1.9-.4.1-.2.1-.3.1-.5 0-.6 0-1.2-.2-1.8-.6-.1-1.2-.1-1.8.1m-6.1 9.6c-.5.1-1 .1-1.5.3-.4.2-.8.7-.8 1.2.1.6.8 1.1 1.3 1.3.5.2 1.1.4 1.6.1s.3-1 .6-1.5c.1-.2.3-.3.3-.5.1-.4-.4-.6-.8-.7s-.8-.1-1-.4m-7.7-11.4c-.5.3-1 .6-1.3 1.1-.5.9-.1 2.4.9 2.6 1 .2 1.9-.7 2.5-1.6.1-.1.1-.2.1-.3 0-.1-.1-.2-.2-.3-.6-.4-1.2-.9-1.8-1.2-.2-.1-.4-.2-.5 0m-41.2 9.2c-.3.6-.4 1.4-.3 2.2.5.3 1.1.2 1.6 0 .5-.3.9-.6 1.2-1.1.1-.1.2-.2.2-.4s-.1-.4-.3-.6c-.3-.4-.8-.6-1.2-.7-.5-.1-1 .3-1.1.8m-2.5 8.6c-.4.2-.5.9-.2 1.3s.9.5 1.3.5c.3-.1.7-.2.8-.4.2-.4-.1-.9-.4-1.2-.3-.4-.8-.8-1.3-.6m21.6-27.3c-.2.5-.2 1.2-.1 1.8.3.4.9.5 1.3.3.4-.3.6-.8.6-1.3-.1-.6-.8-1.2-1.3-.9m46.8 52.7c-.4.6-.2 1.6.4 2 .6.4 1.6.2 2-.4.2-.3.2-.8.1-1.2-.2-.5-.8-.9-1.4-.9-.6-.1-1.2.2-1.6.6.2.1.4.2.6.2" class="st13"/>
    <path d="M353.9 331.5c-.1.8-.4 1.6-.4 2.4 0 .8.5 1.7 1.3 1.7.7 0 1.2-.6 1.5-1.2.3-.4.5-.8.7-1.2.2-.2.3-.5.2-.8l-.3-.3c-.9-.6-2-.9-3.2-.8" class="st10"/>
    <path d="M349.1 322.2c.3.6.7 1.2 1.3 1.3 1 .3 2.2-.9 1.8-1.9s-2.2-1-2.6 0m-22.4 15c-.4 1 .4 2.2 1.5 2.3 1 .2 2-.7 2.3-1.7.1-.2.1-.4-.1-.5-.1-.2-.3-.2-.5-.3-.9-.2-1.8-.4-2.6-.7l-.3.9" class="st14"/>
    <path d="M287 297.8c-.1.5-.3 1-.2 1.5.1.5.4 1 .9 1.1.5.2 1.1-.3 1.3-.8.2-.5.2-1.1.2-1.7l-1.9-.3" class="st13"/>
    <path d="M281.8 370.3c-.2.7-.4 1.6.2 2.1.6.5 1.6.1 2.4.2.2-.6.2-1.3.1-2-.2-.6-.6-1.3-1.3-1.4-.7-.2-1.4.4-1.4 1.1h.5m11.8 4.6c0 .9 0 1.7.1 2.5.6.1 1.2.2 1.9.3.2 0 .4.1.5-.1s.2-.3.3-.5c.2-.9.2-1.9-.4-2.6-.6-.6-2-.5-2.2.4m55.4 1.6c-.6.5-.9 1.3-.6 2 .3.7 1.3 1.1 1.9.6.3-.6.5-1.2.4-1.9s-1-1.1-1.5-.7m29.3.1c-.1.4-.2.9 0 1.3s.8.7 1.1.4c.2-.1.2-.3.3-.4.2-.5.3-1 .3-1.5-.1-.5-.4-1-.9-1-.5-.1-1 .4-.9.9m-2.8-64.5c-.1.5-.3 1-.2 1.5.1.5.5 1 1 .9.8 0 1.1-.9 1.2-1.7.1-.6.1-1.5-.5-1.8-.6-.3-1.2.4-1.6 1" class="st14"/>
    <path d="M381.8 230.6c-.1.5-.2 1 .1 1.5.2.4.8.7 1.2.4.2-.1.3-.3.4-.5.2-.4.3-.9.2-1.3-.1-.4-.4-.9-.9-.9-.4-.1-.9.4-.8.8m-3.2 7.2c0 .6 0 1.1.1 1.7.8.1 1.6-.5 1.7-1.3.1-.8-.5-1.6-1.3-1.7.1.4-.1.8-.2 1.1m6.8 1.6c-.2.6-.4 1.2-.3 1.9s.8 1.2 1.3 1.1c.8-.2 1-1.3.9-2.2-.1-.6-.1-1.3-.6-1.6-.5-.3-1.4.1-1.2.6" class="st13"/>
  </g>
  <g id="Color_Skull_1_">
    <path d="M302.5 300.4c.9-3.2-.8-6.1-3.3-9-3.8-4.5-7.3-9.2-8.1-15.4-1.8-14.1 6.1-27.9 19.1-32.9a30.7 30.7 0 0 1 36.8 11.5 30.8 30.8 0 0 1 5.4 17.7c0 5.9-1.9 11-6 15.3-2 2-3.7 4.3-5.8 6.2-2.2 1.9-3 4.1-2.9 6.9.1 2.2-.2 4.4-.1 6.6v.4c0 .2-.1.4-.1.5 0 .1 0 1.1.1 1.1-.4 0-.8 0-1.1.1-.4 0-.9.1-1.3 0-.8-.1-1.6-.1-2.4-.2-.2 0-.3 0-.5-.1-.3 0-.6-.1-.9-.1-.1 0-.2-.1-.4-.1h-2.4c0-.3-.1-.6-.1-1-.1-.6-.1-1.3-.1-1.9 0-1.2-.1-2.5-.1-3.7 0-.1 0-.1-.1-.2s-.1-.1-.2-.1c-1.3-.1-2.6 0-3.9.2 0 .8 0 1.5-.1 2.3v.6c0 .3 0 .6-.1.9 0 .1-.1.2-.1.2-.1.1-.1.3-.1.4-.1.6-.1 1.2.1 1.8h-1.2c-.5 0-1 0-1.5-.1-.6-.1-1.2-.1-1.8-.1-.2 0-.5 0-.7-.1-.6 0-1.2-.1-1.8-.1h-.9c-.1 0-.9.1-.9.1 0-.5.1-1.1.1-1.7 0-.3 0-.5.1-.9 0-.3.1-.5.1-.8 0-1.1 0-2.2-.1-3.3-1.4-.3-2.9-.4-4.3-.4-.1 1.2-.1 2.5-.2 3.7-.1.6-.1 1.2-.1 1.9v.5c0 .1 0 .2-.1.3-.1.1-.3.1-.4.1-.8.1-1.6 0-2.3-.1-.3 0-.7-.1-1-.1-.9-.1-1.7-.1-2.6-.1-.3 0-.6-.1-.9-.1-.2-.1-.3-.1-.5-.1-.1 0-.9-.1-.9-.1v-2.1c0-.3-.1-.5.1-.8.1-.1 0-.2 0-.3v-.8c0-.7.1-1.3.1-2 .4.6.4.4.4-.5zm17.5-9.9c.5.1 1 .1 1.5.1.8.1 1.6.1 2.3.2-.3-.8-.5-1.6-.9-2.4-.1-.3-.3-.6-.4-.9-.1-.3-.3-.5-.4-.8-.1-.1-.1-.2-.1-.2-.1-.3-.2-.5-.2-.8-.3-.6-.5-1.3-.8-2-.1-.3-.2-.6-.4-.9 0 .1-.1.2-.1.2-.1.1-.2.2-.2.3-.7 1-1.3 1.9-1.9 3-.3.5-.6 1-.9 1.6a3 3 0 0 0-.4.8c-.1.1-.1.2-.2.3-.1.2-.3.4-.4.6-.2.3-.4.5-.6.9h.9c.3 0 .6 0 .9-.1.1 0 .3-.1.4-.1.2 0 .3 0 .5.1.3 0 .6.1.9.1h.5z" class="st15"/>
    <path d="M301.3 298.9c.9-3.2-.8-6-3.2-8.9-3.8-4.4-7.2-9-8-15.1-1.7-13.8 6-27.3 18.7-32.2 13.3-5.2 28.1-.5 36.1 11.3 3.5 5.2 5.3 11 5.4 17.3 0 5.8-1.8 10.8-5.9 15-1.9 2-3.6 4.3-5.7 6-2.2 1.9-3 4-2.8 6.8.1 2.2-.2 4.3-.1 6.5v.4c0 .2-.1.4-.1.5 0 .1 0 1.1.1 1.1h-1.1c-.4 0-.9.1-1.3 0-.8-.1-1.6-.1-2.3-.2-.2 0-.3 0-.5-.1-.3 0-.6-.1-.9-.1-.1 0-.2-.1-.3-.1h-2.3c0-.3-.1-.6-.1-.9-.1-.6-.1-1.2-.1-1.9 0-1.2-.1-2.4-.1-3.7 0-.1 0-.1-.1-.2s-.1-.1-.2-.1c-1.2-.1-2.5 0-3.8.2 0 .8 0 1.5-.1 2.3v.6c0 .3 0 .6-.1.9 0 .1-.1.2-.1.2-.1.1-.1.3-.1.4-.1.6-.1 1.2.1 1.8h-1.1c-.5 0-1 0-1.5-.1-.6-.1-1.2-.1-1.8-.1-.2 0-.5 0-.7-.1-.6 0-1.1-.1-1.7-.1h-.9c-.1 0-.9.1-.9.1 0-.5.1-1.1.1-1.7 0-.3 0-.5.1-.8 0-.3.1-.5.1-.8 0-1.1 0-2.2-.1-3.2-1.4-.2-2.8-.4-4.2-.4-.1 1.2-.1 2.4-.2 3.7-.1.6-.1 1.2-.1 1.8v.5c0 .1 0 .2-.1.3-.1.1-.3.1-.4.1-.8.1-1.5 0-2.3-.1-.3 0-.7-.1-1-.1-.9-.1-1.7-.1-2.5-.1-.3 0-.5-.1-.9-.1-.2 0-.3-.1-.5-.1-.1 0-.9-.1-.9-.1v-2c0-.3-.1-.5.1-.8.1-.1 0-.2 0-.3v-.8c0-.6.1-1.3.1-2 .1.6.1.4.2-.5zm17.1-9.7c.5.1 1 .1 1.4.1.8.1 1.5.1 2.3.2-.3-.8-.5-1.6-.8-2.4-.1-.3-.3-.6-.4-.9-.1-.3-.3-.5-.4-.8-.1-.1-.1-.2-.1-.2-.1-.3-.2-.5-.2-.8-.3-.6-.5-1.3-.8-2-.1-.3-.2-.6-.4-.9 0 .1-.1.2-.1.2-.1.1-.2.2-.2.3-.6 1-1.3 1.9-1.9 2.9l-.9 1.5a3 3 0 0 0-.4.8c-.1.1-.1.2-.2.3-.1.2-.3.4-.4.6-.2.3-.4.5-.6.8h.9c.3 0 .6 0 .9-.1.1 0 .3-.1.4-.1.2 0 .3 0 .5.1.3 0 .6.1.9.1.2.3.4.3.5.3z" class="st15"/>
  </g>
  <g id="Skull_1_">
    <path d="M339.2 245.9c-9.9-7.9-21-9.2-32.5-4-18.5 8.3-23.4 32.8-12.3 45.1 1.6 1.7 2.7 3.7 4.4 5.4 1.5 1.6 1.9 3.2 1.8 5.3-.2 2.9-.4 5.9 0 9l9.5.4.2-6.7 3.7.1v6.4c0 .2-.1.3-.1.5h1c.6 0 1.2.1 1.9.1.8.1 1.6.1 2.4.1.7.1 1.5.1 2.2.1.4 0 .9.1 1.3.1h.2c.1 0 .2 0 .3-.1 0-.2.1-.4.1-.5v-.1c0-.1 0-.2.1-.2 0-.2.1-.3.1-.4v-5.3l3.7.1-.2 6.7c.6 0 10 .4 10 .4v-8.6c0-.3 0-.5-.1-.8 0-.6 0-1.3.1-1.9.1-.6.3-1.3.8-1.9.1-.1.2-.3.3-.4l.4-.4c.3-.3.5-.6.8-.9.5-.6 1.1-1.1 1.6-1.7.5-.6 1-1.1 1.6-1.7s1-1.1 1.5-1.7c.5-.6 1-1.1 1.5-1.7s1-1.1 1.5-1.7c.3-.3.5-.6.8-.9 1.8-2.3 3.1-4.8 3.6-7.7 1.4-12.4-2.4-22.7-12.2-30.5zm-30.5 52.8h-.6v.8c0 .5-.1 1.1-.1 1.7-.1 1.1-.1 2.3-.1 3.4l-4.8-.2c0-.5.1-1 .1-1.5.1-1.1.1-2.2.1-3.3.1-1.1.1-2.3.1-3.4 0-.4.1-.9.1-1.3 0-.2-.1-.4-.1-.6 0-.2-.1-.4-.1-.6 0-.1-.1-.2-.1-.3-.1-.1-.1-.2-.1-.2-.1-.2-.1-.3-.2-.5-.2-.3-.3-.6-.5-1l-.6-.9c-.1-.2-.3-.4-.4-.5-2.3-2.7-4.4-5.6-6.6-8.5-3.1-4.2-3.6-9.1-3-14 1.3-11.1 7.2-19.2 17.5-23.4 10.3-4.1 20-2.4 28.2 5 8.3 7.5 11.4 17 8.7 28.2-.6 2.9-2.5 4.9-4.3 6.9L335 292l-.3.3c0 .1 0 .1-.1.1s-.1.1-.1.2c-.1.1-.2.2-.2.3-.1.1-.1.1-.1.2s-.1.1-.1.1l-.3.6c-.2.5-.3 1-.4 1.6-.1.3-.1.5-.1.8v9.4c-.1.1-.1 0-.1 0h-.2c-.3 0-.6 0-.9-.1-1.2-.1-2.4-.1-3.6-.2.1-1 .1-2 .1-3 0-.3.1-.7.1-1v-1.6l-.7-.1c-.3-.1-.5-.1-.8-.1-.6-.1-1.1-.1-1.7-.2-.6-.1-1.2-.1-1.8-.1h-3.3l-.2 6.2-4.8-.2.2-6.1c-.3-.1-.6-.1-.9-.2-.6-.1-1.1-.2-1.7-.2s-1.2-.1-1.8-.1c-.6 0-1.2 0-1.8-.1h-.9"/>
    <path d="M320.7 280.7c-.1-.1-.1-.2-.1-.2-.1-.2-.2-.4-.3-.5-.1-.1-.1-.2-.2-.3s-.1-.2-.2-.3c-.2-.3-.4-.7-.6-1-.1-.2-.2-.3-.3-.5 0-.1-.1-.1-.1-.1 0-.1-.1-.1-.1-.1-.1 0-.1 0-.1.1s-.1.1-.1.1-.1.1-.1.2c-.1.1-.1.2-.2.3-.2.3-.4.7-.6 1-.2.3-.4.7-.6 1-.3.4-.5.9-.8 1.3-.1.2-.2.3-.3.4-.1.2-.2.3-.3.5-.1.2-.2.3-.3.5-.1.2-.2.4-.3.5l-.3.6-.3.6-.3.6-.3.6-.3.6-.3.6-.3.6c-.1.2-.2.4-.3.5-.1.2-.2.3-.3.5-.1.2-.2.3-.3.5-.1.2-.2.3-.2.4-.1.1-.2.2-.2.4-.1.1-.1.2-.2.3-.1.1-.1.2-.1.2-.1.1-.1.1-.1.2l-.1.1h.1c.3 0 .6 0 .9.1h10.9l1.9.1h.1c-.1-.3-.3-.6-.4-.9-.3-.8-.6-1.5-1-2.2-.4-.9-.8-1.9-1.2-2.8-.4-.9-.8-1.8-1.1-2.6-.3-.6-.5-1.2-.8-1.7.2.1.1 0 .1-.2 0 .1 0 .1 0 0zm-5.6 8.2c1.3-2.2 2.5-4.2 3.8-6.5.9 2.5 1.7 4.4 2.6 6.8-2.2-.2-4-.3-6.4-.3z"/>
  </g>
  <g id="Stone_1_">
    <path d="M284.6 247.4c0 .3.1.5.1.7m-.1-.7c0 .3.1.5.1.7" class="st16"/>
    <path d="M398.5 350.2c-2.7-2.2-4.8-5.1-7.4-7.5.2-2.7.5-5.2.5-7.7-.1-6.8.4-13.6-.2-20.3-.3-4.1.8-8.1 1.9-12.1 2.2-7.6 1-15.4-.2-22.9-.8-5.3-.9-10.5-.5-15.8.4-4.6.4-9.3.8-13.9.5-6.6 1.1-13-.6-19.6-1.5-5.6-1.8-11.5-4-16.8-1.8-4.2-1.8-4.2-7.3-11.5-4.9-5.2-5.7-5.2-9.9-7.8-3.2-1.9-6.4-3.8-10.3-4.1-5-.5-9.6-2.7-14.6-3.5-8.6-1.4-17.1-.6-25.6.6-11.4 1.8-22.7 4-31.4 12.7-4.1 4.1-8.4 8.1-10.2 13.8-.5 1.6-1.6 3-2.4 4.5-3.7 6.3-2.9 9.2-3.4 17.3.3.6-.8 4.1-1.1 5.1-.5 5.5-.5 2-.5 4.4.2 7.2.2 14.3.3 21.4.1 6.5.3 12.9-.9 19.3-1.3 6.7-1.2 13.5-1.2 20.3 0 1.5.1 3.1-.3 4.5-1.1 5.1-.9 10.1-.6 15.2.4 6.9.1 13.7.9 20.8-4 3.1-7.9 6.2-11.9 9.3-1.4 1-2.2 2.2-2.2 4 .1 7.6.1 15.2.2 22.8 0 2 1 3.2 3.1 3.3l29.1 1.8 37.7 2.4c14.3.9 28.5 1.9 42.8 2.8 1.9.1 3.7-.3 5.4-1.3 7.5-4.5 15-9 22.6-13.5 1.8-1.1 2.5-2.5 2.5-4.6.1-6.6.2-13.2.4-19.8 0-1.5-.3-2.7-1.5-3.6zm-123.8-34c.6-4.5 1.2-9 1.1-13.6-.2-5.9.5-11.7 1.4-17.5 1.2-8.1.8-16.2.6-24.3-.1-3-.1-5.9-.1-8.8 0-.8.1-1.5.1-2.3.1-.4.1-.9.1-1.3 0-.2.2-.4.3-.5.2-.3.5-.5.7-.8l.2-.2c.1 0 .2 0 .2.1 1 .4 2.6 2 2.7 2.1 0 .1 1.9 1.5 1.9 1.6.1.1-1.2 2.7-1.2 2.9 2.3 0 1.7-.8 3.6-4.1.1-.2-1.9-1.6-1.9-1.8-.3-.3-.4-.8-.6-1.1-.2-.5-.4-.9-.7-1.3-.2-.2-.3-.4-.5-.6l-.5-.5c-.1-.1-.2-.2-.2-.4-.1-.2-.2-.4-.2-.6-.2-.5-.4-1-.6-1.6-.4-1-.7-2.1-1-3.2-.3-1.1-.6-2.2-1-3.2-.2-.6-.4-1.1-.6-1.7.4-5.1 1.3-9.9 4.7-14 .8-1 1.2-2.2 1.6-3.3 1.5-5 4.8-8.5 8.7-11.7 2.4-2 4.5-4.4 7.3-5.7.1-.1.3.1.3.1.1.1.2.1.3.2.2.2.4.3.5.5.2.3.3.6.4.9l.3.9c.2.6.4 1.1.6 1.7.1.1.1.2.1.2 0 .1.1.1.1.1s.1.1.2.1c.2.1.4.2.6.2.1 0-.2 1.5-.2 1.6v.3c0 .2-.1.5-.1.7-.1.5-.1 1-.1 1.5 0 .2-.1.4 0 .5.1.2.1.3.2.4.4.9.9 1.7 1.4 2.6-.1-.1-.1-.3-.1-.4-.1-.2-.1-.3-.1-.4-.1-.3-.1-.6-.2-.9-.1-.4-.1-.8-.2-1.2 0-.2-.1-.3-.1-.4 0-.1-.1-.2 0-.3.1-.2.1-.3.2-.4.1-.2.2-.3.2-.5 0 0 .3.1.4.1.1.1.2.1.3.1l.9.3c.1.1.2.1.3.2.1.1.1.2.2.3.3.7.5 1.5.9 2.2.1.1.1.3.2.4.1.1.2.2.3.2.7.4 1.5.9 2.2 1.3-.3-.5-.8-1-1.2-1.5-.6-.8-1.1-1.8-1.2-2.8-.1-.2-.1-.4-.1-.6-.5-.4-1.1-.7-1.6-1.1-.2-.2-.5-.3-.6-.4-.1-.1-.1-.2-.1-.3-.1-.2-.1-.3-.2-.4-.2-.6-.4-1.2-.6-1.7-.1-.2-.1-.4-.3-.4-.1-.1-.2-.1-.3-.1-.2-.1-.2-.3-.3-.5-.1-.2-.1-.5-.2-.7-.1-.2-.1-.4-.1-.6v-.2c-.1-.4-.2-.8-.2-1.1-.1-1 .2-1.9.7-2.8 16.4-2.4 33-4.4 47.4 8.2v7.5c0 .2 0 .5-.1.7-.1.1-.1.1-.1.2-.1.2-.1.3-.2.4-.2.3-.3.5-.5.9-.2.3-.4.6-.5 1 .1-.1.1-.1.2-.1l.2-.2c.1-.1.3-.2.4-.3.3-.2.5-.4.7-.6.1-.1.2-.2.3-.4l.3-.6c.2-.2.3-.4.3-.7.1-.1.1-.2.1-.3.1-.1.1-.2.1-.4.1-.3.1-.5.2-.8.2-1.1.3-2.2.4-3.2l.3-1.2c4.5 3.5 9.1 6.6 9.7 12.7.5 5.2 1.5 10.2 2.9 15.2.4 1.5.8 3 .8 4.5 0 10.1.5 20.1-1.1 30.1-.9 5.3-.8 10.9-.9 16.3 0 5.8-.3 11.6-.9 17.4-.5 5.7-.5 11.3.9 16.7.8 2.9.3 5.8-.1 8.8-.6 5.8-.9 11.6-1.3 17.4-.1 1.4-.1 2.9-.6 4.4-29.3-1.6-58.5-3.2-87.9-4.9l-.1-1c-.1-.4-.1-.8-.2-1.1-.1-.8-.2-1.5-.2-2.2-.1-.8 0-1.5.1-2.2v-.3c0-.3.1-.6.1-.8.1-.3.1-.6.2-.9.2-.6.3-1.3.6-1.9.1-.1.1-.2.1-.3.1-.1.2-.1.3-.2 1.4-.5 2.7-1.1 4.1-1.6.2-.1.2-.3.3-.4.1-.2.2-.3.4-.5.1-.1.3-.2.4-.3.2-.2.3-.5.4-.8.2-.4.4-.9.6-1.3l.3-.6c0-.1 0-.1.1-.2.2-.3.5-.5.8-.6.5-.4.9-.8 1.2-1.3-.4.2-.8.5-1.2.8l-.6.3c-.1 0-.1 0-.2.1-.1 0-.1.1-.1.1-.1.1-.2.3-.3.4-.2.3-.4.6-.6 1-.3.4-.5.8-.8 1.2-.3.4-.4.9-.9 1.1-.1.1-.3.1-.4.2-1.3.4-2.7.9-4.1 1.3a3 3 0 0 0-.8.4v-.5c.1-.3 0-.5.1-.8V331c0-.8-.1-1.5-.1-2.2-.1-1.5-.2-2.9-.2-4.3-.4-2.7-.5-5.5-.1-8.3zm-1.2 34.9c.8-.6 1.7-.4 2.6-.4 17.3 1 34.6 1.9 51.8 2.9 11.3.6 22.6 1.3 34 1.9.5.1 1.1.2 1.7.2 1.1 2.2 1.9 4.4 2.6 7.1-33-2.2-65.7-4.3-99-6.4 2.2-2.3 4.3-3.7 6.3-5.3zm94.4 36c-2.4.4-4.8.1-7-.2-.1 0-.2-.1-.3-.2-.1-.1-.2-.1-.3-.2-.2-.1-.3-.3-.5-.4-.3-.3-.5-.8-.9-1.1-.1-.1-.3-.2-.3-.3-.1-.2-.2-.4-.2-.6 0-.1 0-.1-.1-.2s-.1-.1-.1-.2c-.3-.3-.5-.6-.6-1-.1-.1-.1-.3-.1-.4.1-.3-.1-.6-.2-.9-.1-.3-.1-.5-.2-.8 0-.1-.1-.2-.1-.2-.1-.2-.3-.3-.4-.4-.4-.4-.8-.8-1.1-1.2-.2-.2-.3-.3-.5-.4l.3.3.3.3c.2.2.3.4.4.8 0 .1.1.3.2.4.2.3.3.6.3.9.1.4.2.9.2 1.3.1.4.1.8.1 1.2l.3.1c.1.1.1.2.1.3.1.3.3.5.4.8.1.1.1.2.2.3v.9c0 .1 0 .3-.1.4-.1.2-.3.3-.3.5-.2 0-.5.1-.8 0-.1 0-.1 0-.2-.1-.4-.1-.7-.1-1.1-.1-.7-.1-1.4-.1-2.1-.1l-18.2-1.2-18.2-1.2-18.2-1.2-18.2-1.2-9.2-.6-4.6-.3c-.8-.1-1.5-.1-2.3-.2-.2 0-2.2-.1-2.2-.2v-5.2l.1-.1.1-.1c.1-.1.1-.2.2-.3.2-.2.3-.4.4-.6.2-.2.4-.4.5-.6.1-.1.1-.2.2-.3.1-.1.3-.2.4-.3.2-.1.3-.2.5-.3a3 3 0 0 1 1-.4c.3-.1.5-.2.8-.1l.6.3c.6.4 1.2.9 1.9 1 .2.1.2-.1.3-.2.3-.3.6-.5.9-.6.1-.1.2-.1.2-.1.2-.1.3-.2.5-.3.6-.3 1.3-.3 2-.4-.5-.2-1-.3-1.6-.3-.3 0-.6 0-.9.2l-.1.1c-.1.1-.2.1-.2.2l-.5.3c-.1 0-.1.1-.1.1-.1.1-.2.1-.3.2-.1.1-.2.2-.3.2-.1 0-.2-.1-.3-.1-.1-.1-.2-.1-.2-.1-.2-.1-.3-.2-.4-.3-.4-.3-.9-.8-1.3-1.1-.1-.1-.1-.1-.2-.1h-.2c-.2.1-.3.1-.5.1-.1 0-.2.1-.3.1h-.2c-.2 0-.3.1-.5.1-.2.1-.5.1-.7.2-.7.2-1.3.3-2 .5v-10.8c35.3 2.3 70.5 4.6 105.9 6.8l.1 18.9zm-10.1-184.4-1.6-2.2h-.7c-.1 0-.2-.1-.3-.1l-1.6-1.3c-1.1-.9-2.2-1.7-3.3-2.4-2.3-1.6-4.6-3-7.2-4.2-1.1-.1-2-.6-3.3-1.5 1.4.2 2.4.4 3.3.5 3.3-.1 6.5 1 9.6 2 2.5.8 5 1.6 7.5 1.8 3.9.3 7 2.4 10.1 4.5 2.4 1.7 3.2 4.4 4 7 .5 2-1.3 2.9-2.5 4v.2c0 .1.1.2.1.3.1.2.2.4.2.6l.6 1.2c.1.2.2.4.2.6s.1.5.1.7c0 .1-.2.2-.2.3-.3.4-.7.9-1 1.2l2.3-.8.4-.4c.2-.1.3-.3.5-.4-.2-.1-.2-.2-.2-.3-.1-.2-.1-.5-.2-.7-.1-.2-.1-.4-.2-.6 0-.1-.1-.2-.1-.3 0-.1-.1-.3-.1-.3.6-1.2 1.9-1.4 2.5-2.2 4 .3 6.2 2.4 7.3 6 1.5 4.6 1.8 9.4 3.2 14 2.3 8.2.9 16.3.3 24.4-.3 4.7.2 9.5-.8 14.1-.4 1.8-.8 3.4-2.2 4.5-.5 2-.1 3.8-.2 5.7-.2.5-.7 1-1.1 1.3-.4.4-.8.7-1.2 1l-.1.1c-.4.3-.8.5-1.1.9l-.5.5c-.2.2-.4.3-.6.4-.4.2-.8.5-1.1.8-.1.1-.3.2-.3.3l-.2.2-.2.2s-.1.1-.1.2.1.1.1.1c.3.3.4.8.6 1.2.1.1.2.2.2.4.1.1.1.1.1.2.1.2.2.4.2.6v.3c-.1.2.1.4-.1.6-.2.2-.5.4-.7.6l-.3.3c-.2.2-.5.4-.7.6l-.1.1c-.1.1-.1.2 0 .3.2 1.2.3 2.4.5 3.6 0 .2.1.4.1.6-.1.2-.1.3-.1.5 0 .5.1 1 .1 1.4l1-5c.8-1.4 2.6-1.7 3.1-3.1 0-1.2-1.1-1.6-1.5-2.6 2-1.5 4-3 6.3-4.6.1-1.1.2-2.4.2-3.7.8.2.9.8.9 1.2.4 7.3 2.2 14.5.6 21.9-.5 2.6-1.5 5.2-1.8 7.8-.9 7.4.3 14.8.1 22.2-.1 3.7.4 7.5-.9 11.4-5.4 2.8-10.8 5.3-16.7 8.1.3-3.3.4-6.2.7-9.1.5-4.7.3-9.5 1.3-14.1.4-2 .3-4.1-.2-6.1-1.7-6.5-1.6-12.9-.8-19.4.9-7.1.6-14.3.8-21.4.1-7.2 1.2-14.2 1.6-21.4.4-7.5 1-15-.3-22.4-1-5.9-2.7-11.6-3.4-17.6-.5-4.4-2.7-8.1-6.2-10.9-1.3-1.1-2.5-2.2-3.8-3.3-.3-.5-.6-.7-.9-1.1l-.1-.1c-.1-.1-.1-.2-.2-.4m28.6 147.7.1.1s.1 0 .1.1c.1 0 .2.1.2.1.1.1.2.2.2.3 0 .2.1.3.1.5 0 .4.1.8 0 1.2 0 .2 0 .4-.1.6v.2c0 .1.1.1.2.2.2.1.3.2.3.3.1.1.1.2.1.3 0 .1-.1.2-.1.3-.1.2-.3.3-.5.4-.5.2-1 .5-1.4.8-4.3 2.3-8.6 4.6-13.1 6.9-1.2-2.2-2-4.4-2.8-6.9 6-2.8 11.9-5.6 17.9-8.5 2 1.2 3.2 3.1 4.7 4.7-.8.9-1.8 1.2-2.9 1.7-.1-.1-.2-.1-.3-.2-.1-.1-.3-.2-.4-.2s-.2-.2-.4-.2c-.2-.1-.4-.2-.5-.3-.1-.1-.1-.1-.1-.2-.1-.2-.1-.4-.1-.6-.1-.3-.1-.5-.2-.8-.1-.2-.2-.5-.2-.7l-1.1-.4 1.1.4m2.9 14.4v-.8c0-.2 0-.4.1-.5.1-.1.1-.2.1-.2 0-.1.1-.1.1-.1.2-.3.3-.5.5-.8.9-1.1 1.5-2.3 1.3-3.8.6-.4 1.2-.9 2.2-.9.4 5.3.1 10.8-.1 16.4-6.8 4-13.6 8.1-20.6 12.2v-18.2c5.5-2.9 10.9-5.8 16.4-8.6.2.2.3.5.3.8.1.2 0 .4 0 .5 0 .1-.1.2-.1.3 0 .1-.1.1-.1.2l-.2.2-.3.3c-.1.1-.2.3-.3.4-.1.1-.1.1-.1.2-.1.1-.1.2-.1.3-.2.3-.3.6-.5.9-.1.1-.2.3-.2.4 0 .1 0 .1.1.2v2.1c0 .4.1.7.1 1.1 0 .3-.1.6-.2.9l-.2.2-.1.1-.1.1c-.4.4-.9.8-1.3 1.1.3-.1.6-.1.9-.3.2-.1.4-.3.7-.4.1 0 .1-.1.2-.1h.1c.1-.2.2-.3.3-.5.1-.1.1-.2.1-.3s.1-.2.1-.3c0-.1.1-.1.1-.2.1-.2.1-.4.2-.6.1-.1.1-.2.1-.3 0-.1.1-.1.1-.2s0-.2.1-.3c0-.1.1-.2.2-.3h.1v-1.2z" class="st16"/>
  </g>
  <g id="Eyes_B_1_">
    <path d="M328.3 270.4a7.23 7.23 0 0 0-.5 6.7c.3.6.6 1.2 1.2 1.6 1.2.7 2.7.1 3.9-.6 1.6-.9 3.3-1.9 3.9-3.6.5-1.2.3-2.7-.3-3.9-.3-.8-.8-1.4-1.3-2-.4-.4-.7-.9-1.3-.9-1.3-.2-2.8.2-3.9.9-.7.6-1.3 1.2-1.7 1.8zm-24.5.4c-.4.8-.8 1.6-.8 2.4-.1 1.5.6 2.8 1.2 4.1.1.3.3.5.5.7.2.2.5.2.8.3 2.7.4 5.5-.7 7.2-2.8.3-.4.6-.9.8-1.3.2-.8.2-1.5.2-2.3-.1-1.1-.2-2.3-1-3.1-.4-.4-.9-.6-1.3-.9-.6-.3-1.3-.7-1.9-.9-.5-.1-1.1.1-1.5.2-1.1.4-2.1 1.1-2.9 2-.2.3-.4.5-.6.8-.1.2-.2.3-.3.4-.2.1-.3.3-.4.4z" class="st5"/>
    <path fill="#272f49" d="m330.5 279.2-1.6-.3c-.2-.3-.4-.6-.5-.9-.2-.3-.2-.6-.4-.9a6.95 6.95 0 0 1 .3-6.5 6.9 6.9 0 0 1 3.6-2.9c.6-.2 1.3-.3 1.9-.1.4.1.8.4 1.1.7.2.2.3.3.4.5.1.2.3.3.4.5-.2 0-.3-.1-.5-.1s-.4-.1-.5-.1a5.8 5.8 0 0 0-5.8 5.8c-.1 1.8.5 3.3 1.6 4.3zm-25.6-.9c-.1 0-.2-.3-.2-.4-.1-.1-.2-.3-.2-.4-.1-.3-.3-.6-.3-.9-.1-.3-.1-.6-.2-.9-.1-.4-.2-.8-.3-1.1a6 6 0 0 1-.2-2.3c.1-1.3.8-2.5 1.8-3.4 1-.9 2.2-1.5 3.5-1.8.4-.1.9-.2 1.3-.1.5.1 1 .4 1.4.9.2.2.4.4.5.6.1.1.2.2.1.3-.1.1-.1.1-.2.1-.2 0-.4-.1-.5-.1-.2 0-.4-.1-.5-.1a5.8 5.8 0 0 0-4.2 9.8c-.2.1-1.8-.2-1.8-.2z"/>
    <path d="M307.3 279.8c-4.1 0-7.4-3.3-7.4-7.4 0-4.1 3.3-7.4 7.4-7.4 4.1 0 7.4 3.3 7.4 7.4 0 4-3.4 7.4-7.4 7.4zm0-12.7c-2.9 0-5.3 2.4-5.3 5.3s2.4 5.3 5.3 5.3 5.3-2.4 5.3-5.3c-.1-3-2.4-5.3-5.3-5.3zm23.9 13.2c-4.1 0-7.4-3.3-7.4-7.4 0-4.1 3.3-7.4 7.4-7.4 4.1 0 7.4 3.3 7.4 7.4 0 4.1-3.4 7.4-7.4 7.4zm0-12.7c-2.9 0-5.3 2.4-5.3 5.3s2.4 5.3 5.3 5.3 5.3-2.4 5.3-5.3a5.4 5.4 0 0 0-5.3-5.3z"/>
    <path d="M303.8 277.1c-.8-1.1-1.1-2.4-1.1-3.7 0-3.8 3.1-6.9 6.9-6.9h.2c.4.4.9.8 1.2 1.2-.5-.1-.9-.2-1.4-.2a5.8 5.8 0 0 0-4.2 9.8l-1.6-.2zm25.6 1-1.6-.3a6.9 6.9 0 0 1 5.3-10.8l1.4 1.1c-.3-.1-.7-.1-1.1-.1a5.8 5.8 0 0 0-5.8 5.8c.1 1.8.8 3.2 1.8 4.3z"/>
  </g>
</svg>
